# xmcd
#
# Track frame offsets: 
#        150
#        12667
#        28862
#        44215
#        60153
#        77445
#        95081
#        109562
#        126698
#        146683
#        161148
#        172235
#        187889
#
# Disc length: 2745 seconds
#
# Revision: 0
# Processed by: cddbd v1.5.1PL2 Copyright (c) Steve Scherf et al.
# Submitted via: ExactAudioCopy v0.95b2
#
DISCID=bb0ab70d
DTITLE=Wayword Sons - Poor Boy's Delight
DYEAR=2006
DGENRE=Bluegrass
TTITLE0=Beyond The Blue
TTITLE1=Bound For Tennessee
TTITLE2=Roberta
TTITLE3=How Far I'd Fall For You
TTITLE4=Believe It
TTITLE5=Midnight Texas Time
TTITLE6=The Numbers
TTITLE7=Nothin' To It
TTITLE8=Poor Boy's Delight
TTITLE9=Lazy
TTITLE10=Sally
TTITLE11=Somehow, Somewhere
TTITLE12=The Man That Only You Could Love
EXTD=
EXTT0=
EXTT1=
EXTT2=
EXTT3=
EXTT4=
EXTT5=
EXTT6=
EXTT7=
EXTT8=
EXTT9=
EXTT10=
EXTT11=
EXTT12=
PLAYORDER=
